HIERARCHY
ROOT Hips
{
	OFFSET 0.00000 0.00000 0.00000
	CHANNELS 6 Xposition Yposition Zposition Zrotation Yrotation Xrotation 
	JOINT LHipJoint
	{
		OFFSET 0 0 0
		CHANNELS 3 Zrotation Yrotation Xrotation
		JOINT LeftHip
		{
			OFFSET 1.62964 -1.40469 0.78906
			CHANNELS 3 Zrotation Yrotation Xrotation
			JOINT LeftKnee
			{
				OFFSET 2.29640 -6.30932 0.00000
				CHANNELS 3 Zrotation Yrotation Xrotation
				JOINT LeftAnkle
				{
					OFFSET 2.29451 -6.30412 0.00000
					CHANNELS 3 Zrotation Yrotation Xrotation
					JOINT LeftToe
					{
						OFFSET 0.03611 -0.09921 1.56387
						CHANNELS 3 Zrotation Yrotation Xrotation
						End Site
						{
							OFFSET 0.00000 -0.00000 0.80291
						}
					}
				}
			}
		}
	}
	JOINT RHipJoint
	{
		OFFSET 0 0 0
		CHANNELS 3 Zrotation Yrotation Xrotation
		JOINT RightHip
		{
			OFFSET -1.73712 -1.40469 0.78906
			CHANNELS 3 Zrotation Yrotation Xrotation
			JOINT RightKnee
			{
				OFFSET -2.28137 -6.26801 0.00000
				CHANNELS 3 Zrotation Yrotation Xrotation
				JOINT RightAnkle
				{
					OFFSET -2.28681 -6.28298 0.00000
					CHANNELS 3 Zrotation Yrotation Xrotation
					JOINT RightToe
					{
						OFFSET -0.15927 -0.43759 1.61103
						CHANNELS 3 Zrotation Yrotation Xrotation
						End Site
						{
							OFFSET -0.00000 -0.00000 0.84630
						}
					}
				}
			}
		}
	}
	JOINT lowerback
	{
		OFFSET 0 0 0
		CHANNELS 3 Zrotation Yrotation Xrotation
		JOINT Chest
		{
			OFFSET -0.04227 2.04338 -0.00225
			CHANNELS 3 Zrotation Yrotation Xrotation
			JOINT Chest2
			{
				OFFSET -0.02148 2.04482 -0.04273
				CHANNELS 3 Zrotation Yrotation Xrotation
				JOINT lowerneck
				{
					OFFSET 0 0 0
					CHANNELS 3 Zrotation Yrotation Xrotation
					JOINT Neck
					{
						OFFSET 0.09180 1.44629 0.19359
						CHANNELS 3 Zrotation Yrotation Xrotation
						JOINT Head
						{
							OFFSET 0.00887 1.40645 0.14750
							CHANNELS 3 Zrotation Yrotation Xrotation
							End Site
							{
								OFFSET -0.00669 1.50671 0.03707
							}
						}
					}
				}
				JOINT LeftCollar
				{
					OFFSET 0 0 0
					CHANNELS 3 Zrotation Yrotation Xrotation
					JOINT LeftShoulder
					{
						OFFSET 2.17674 1.86763 -0.06520
CHANNELS 3 Zrotation Xrotation Yrotation
						JOINT LeftElbow
						{
OFFSET 0 -4.657760 0.000000
CHANNELS 3 Zrotation Xrotation Yrotation
							JOINT LeftWrist
							{
OFFSET 0 -3.555390 0.000000
CHANNELS 3 Zrotation Xrotation Yrotation
								JOINT lhand
								{
									OFFSET 0 0 0
CHANNELS 3 Zrotation Xrotation Yrotation
									JOINT LFingers
									{
OFFSET 0 -0.707260 0.000000
CHANNELS 3 Zrotation Xrotation Yrotation
										End Site
										{
OFFSET 0 -0.570220 0.000000
										}
									}
								}
								JOINT LThumb
								{
OFFSET 0 0.000000 0.000000
CHANNELS 3 Zrotation Xrotation Yrotation
									End Site
									{
OFFSET 0 -0.578920 0.578920
									}
								}
							}
						}
					}
				}
				JOINT RightCollar
				{
					OFFSET 0 0 0
					CHANNELS 3 Zrotation Yrotation Xrotation
					JOINT RightShoulder
					{
						OFFSET -2.80694 1.55459 -0.32496
CHANNELS 3 Zrotation Xrotation Yrotation
						JOINT RightElbow
						{
OFFSET 0 -4.719250 -0.000000
CHANNELS 3 Zrotation Xrotation Yrotation
							JOINT RightWrist
							{
OFFSET 0 -3.569900 0.000000
CHANNELS 3 Zrotation Xrotation Yrotation
								JOINT rhand
								{
									OFFSET 0 0 0
CHANNELS 3 Zrotation Xrotation Yrotation
									JOINT RFingers
									{
OFFSET 0 -0.507760 0.000000
CHANNELS 3 Zrotation Xrotation Yrotation
										End Site
										{
OFFSET 0 -0.409370 0.000000
										}
									}
								}
								JOINT RThumb
								{
OFFSET 0 0.000000 0.000000
CHANNELS 3 Zrotation Xrotation Yrotation
									End Site
									{
OFFSET 0 -0.415620 0.415620
									}
								}
							}
						}
					}
				}
			}
		}
	}
}
MOTION
Frames: 10
Frame Time: 0.008333333333333333
9.277550 12.474252 30.120557 -181.078968 0.429985 -123.070838 0.000000 0.000000 0.000000 5.376956 -22.416134 -98.216240 19.768523 19.998471 89.323133 3.820419 -10.768030 -35.455696 3.665079 -11.700906 -34.681845 0.000000 0.000000 0.000000 -4.582726 27.311152 -94.917588 -18.079749 -19.911296 84.377601 -7.560718 -0.749921 -52.865321 -4.167268 12.379751 -37.088912 -4.307629 -0.575582 -5.925349 -0.819318 -0.683803 -2.555710 1.528326 -0.389921 0.721384 1.898512 -1.930896 -1.769902 3.059488 -5.184304 -27.433286 1.239063 -4.423469 -8.175331 0.000000 0.000000 0.000000 14.623080 4.571890 -26.752938 11.961230 -19.746288 2.089306 28.284283 -1.742044 14.897158 0.000000 0.000000 0.000000 -7.125000 0.000000 0.000000 0.482512 13.170906 0.359900 0.000000 0.000000 0.000000 -2.186135 5.441557 3.271220 -9.457630 -15.886687 -1.322602 -16.012741 31.170667 49.279028 0.000000 0.000000 0.000000 7.125000 0.000000 0.000000 50.714043 75.749508 -38.644032
9.281880 12.410282 30.052345 -181.155674 0.458276 -123.348763 0.000000 0.000000 0.000000 5.175632 -22.602908 -97.954734 20.082233 19.999410 90.240494 3.821487 -11.049417 -35.454624 3.523213 -11.496754 -33.974798 0.000000 0.000000 0.000000 -4.507250 27.364529 -94.928016 -18.540215 -19.947711 85.728098 -7.666257 -0.602383 -53.211026 -4.224499 12.453168 -37.354652 -4.318931 -0.581120 -5.604606 -0.876249 -0.691023 -2.409497 1.478013 -0.389910 0.693929 1.988019 -2.170966 -1.946786 3.210038 -5.503790 -27.343650 1.285452 -4.601210 -8.110388 0.000000 0.000000 0.000000 14.083993 3.104807 -26.482776 11.675185 -19.315451 1.993750 28.607634 -1.110511 14.503997 0.000000 0.000000 0.000000 -7.125000 0.000000 0.000000 0.738684 13.562613 0.544450 0.000000 0.000000 0.000000 -1.951343 3.886064 3.748604 -9.396641 -15.790322 -1.305983 -16.212234 31.960554 50.425643 0.000000 0.000000 0.000000 7.125000 0.000000 0.000000 54.725365 76.390221 -42.676254
9.283290 12.354141 29.983879 -181.117838 0.536727 -123.416793 0.000000 0.000000 0.000000 5.147271 -22.680212 -97.878504 20.385918 19.995863 91.128497 3.808549 -11.279556 -35.387835 3.359355 -11.254092 -33.143106 0.000000 0.000000 0.000000 -4.442833 27.628806 -94.735764 -18.841775 -19.967391 86.611785 -7.745839 -0.773280 -53.534861 -4.394039 12.665880 -38.132060 -4.239218 -0.564843 -5.540568 -0.944369 -0.671785 -2.354837 1.364804 -0.380907 0.712203 1.931342 -1.898639 -2.075647 3.407593 -5.130773 -27.521189 1.343776 -4.463664 -8.143566 0.000000 0.000000 0.000000 13.537333 1.570314 -25.947526 11.339899 -18.806853 1.884495 29.377792 -0.631069 14.820442 0.000000 0.000000 0.000000 -7.125000 0.000000 0.000000 1.222409 13.090600 0.916169 0.000000 0.000000 0.000000 -1.651799 2.254399 4.433201 -9.400829 -15.796952 -1.307097 -16.937545 32.531303 48.210989 0.000000 0.000000 0.000000 7.125000 0.000000 0.000000 46.640785 75.442567 -35.118253
9.282515 12.306693 29.908421 -181.099055 0.629864 -123.554239 0.000000 0.000000 0.000000 5.073831 -22.818163 -97.627274 20.674054 19.988507 91.971218 3.828631 -11.564996 -35.482179 3.419392 -11.343385 -33.448767 0.000000 0.000000 0.000000 -4.262313 27.767096 -94.508099 -19.144531 -19.981653 87.498020 -7.803968 -0.933188 -53.778404 -4.543971 12.850514 -38.812353 -4.148687 -0.661168 -5.455764 -1.020358 -0.637253 -2.335868 1.239556 -0.289642 0.686268 1.921550 -1.551510 -2.193949 3.443010 -4.659054 -27.587873 1.329368 -4.254861 -8.146679 0.000000 0.000000 0.000000 12.958963 0.024342 -25.258882 11.079994 -18.410570 1.801326 29.300289 0.457212 14.417145 0.000000 0.000000 0.000000 -7.125000 0.000000 0.000000 1.211775 13.556086 0.896279 0.000000 0.000000 0.000000 -1.364981 0.695269 5.224922 -9.457899 -15.887096 -1.322687 -17.582467 32.948628 46.795382 0.000000 0.000000 0.000000 7.125000 0.000000 0.000000 41.398173 74.875312 -30.314404
9.282075 12.268622 29.825884 -181.130923 0.693828 -123.869990 0.000000 0.000000 0.000000 4.846329 -23.056104 -97.078028 20.936434 19.978469 92.738938 3.862480 -11.922645 -35.644498 3.726933 -11.780267 -34.969032 0.000000 0.000000 0.000000 -3.971815 27.838460 -93.952983 -19.391780 -19.990917 88.221492 -7.842340 -0.959193 -53.920623 -4.674450 13.006943 -39.395452 -4.125838 -0.747618 -5.202653 -1.061197 -0.646292 -2.274508 1.186852 -0.242085 0.611895 1.835372 -1.270431 -2.623389 3.489403 -4.290776 -27.413397 1.321400 -4.080814 -8.010235 0.000000 0.000000 0.000000 12.341206 -1.482620 -24.834959 10.986547 -18.267692 1.771717 28.970301 0.921020 14.413274 0.000000 0.000000 0.000000 -7.125000 0.000000 0.000000 0.991501 13.611330 0.729513 0.000000 0.000000 0.000000 -1.167275 -0.805162 6.546820 -9.708256 -16.281052 -1.392750 -17.726845 32.255682 46.617005 0.000000 0.000000 0.000000 7.125000 0.000000 0.000000 40.730714 74.814342 -29.737091
9.281959 12.241858 29.735820 -181.261247 0.730088 -124.434703 0.000000 0.000000 0.000000 4.375735 -23.432109 -96.098430 21.131728 19.969160 93.310632 3.878770 -12.281777 -35.723836 4.059897 -12.238524 -36.582706 0.000000 0.000000 0.000000 -3.564300 27.836685 -92.925486 -19.592917 -19.995627 88.809733 -7.861271 -1.081302 -54.016058 -4.902555 13.269469 -40.392412 -4.182864 -0.799302 -4.579019 -1.087771 -0.752815 -2.263315 1.192507 -0.292013 0.281236 1.711774 -1.114737 -2.993532 3.577965 -4.064077 -27.113604 1.338240 -3.957556 -7.838340 0.000000 0.000000 0.000000 11.771880 -2.638295 -25.044758 11.128162 -18.483967 1.816756 28.227208 0.874995 13.946958 0.000000 0.000000 0.000000 -7.125000 0.000000 0.000000 0.520826 14.227462 0.394955 0.000000 0.000000 0.000000 -1.028056 -2.070509 8.348396 -10.144020 -16.963503 -1.517588 -17.631380 30.690005 46.585443 0.000000 0.000000 0.000000 7.125000 0.000000 0.000000 40.741236 74.756510 -29.700041
9.280947 12.227216 29.638253 -181.501925 0.750123 -125.208396 0.000000 0.000000 0.000000 3.729563 -23.936991 -94.698173 21.222771 19.964116 93.577284 3.869448 -12.574723 -35.681619 4.188337 -12.406872 -37.186973 0.000000 0.000000 0.000000 -3.048716 27.724279 -91.543100 -19.756061 -19.998538 89.286658 -7.830840 -1.466159 -53.997531 -5.252806 13.661599 -41.901115 -4.273855 -0.865658 -3.717076 -1.135190 -0.943673 -2.312573 1.196398 -0.401538 -0.241890 1.729500 -1.960537 -2.816730 3.905021 -3.741645 -26.915421 1.332478 -3.155823 -7.800253 0.000000 0.000000 0.000000 11.343105 -3.434739 -25.910020 11.501828 -19.052555 1.937178 27.591725 0.469910 12.482424 0.000000 0.000000 0.000000 -7.125000 0.000000 0.000000 0.218480 15.942738 0.168221 0.000000 0.000000 0.000000 -0.892436 -3.110599 10.368709 -10.687993 -17.806507 -1.680858 -17.842276 29.275277 46.635165 0.000000 0.000000 0.000000 7.125000 0.000000 0.000000 40.716102 74.864897 -29.779332
9.280508 12.220944 29.539365 -181.693167 0.723583 -125.877255 0.000000 0.000000 0.000000 3.283676 -24.380224 -93.348051 21.243808 19.962814 93.638880 3.845374 -12.835797 -35.570334 4.153543 -12.361971 -37.024949 0.000000 0.000000 0.000000 -2.590079 27.764108 -89.969074 -19.703249 -19.997817 89.132153 -7.705630 -1.714518 -53.612450 -5.487829 13.912911 -42.889693 -4.334222 -0.839018 -3.425627 -1.150866 -1.116575 -2.099613 1.210900 -0.579191 -0.182205 1.816957 -5.016271 -2.640405 5.057787 -2.844857 -26.987402 1.342187 -0.525289 -7.852921 0.000000 0.000000 0.000000 11.022249 -4.687195 -27.102804 11.982071 -19.777079 2.096669 30.185166 -2.706363 13.954253 0.000000 0.000000 0.000000 -7.125000 0.000000 0.000000 1.857870 13.947403 1.357122 0.000000 0.000000 0.000000 -0.807889 -4.542236 12.915693 -11.443833 -18.964046 -1.918719 -18.362011 27.723754 47.660737 0.000000 0.000000 0.000000 7.125000 0.000000 0.000000 43.260267 75.733651 -32.500828
9.281476 12.218656 29.442587 -181.712523 0.686807 -126.254689 0.000000 0.000000 0.000000 3.121793 -24.647507 -92.346311 21.285863 19.960263 93.761964 3.813877 -13.188597 -35.427718 4.157502 -12.367074 -37.043249 0.000000 0.000000 0.000000 -2.309423 27.858863 -89.264090 -19.902876 -19.999752 89.715900 -7.699648 -1.387760 -53.512857 -5.464866 13.888892 -42.794059 -4.233485 -0.892774 -3.503577 -1.182714 -1.177985 -1.969314 1.117114 -0.613943 -0.003606 1.806752 -5.080320 -2.532365 5.164859 -2.887352 -27.144622 1.384945 -0.549308 -7.922777 0.000000 0.000000 0.000000 10.894062 -5.984108 -28.687411 12.543647 -20.614737 2.290225 31.200455 -5.029298 14.409373 0.000000 0.000000 0.000000 -7.125000 0.000000 0.000000 2.490007 13.272157 1.853944 0.000000 0.000000 0.000000 -0.673808 -5.909180 15.156719 -12.285537 -20.231046 -2.200255 -18.601492 25.414368 47.182302 0.000000 0.000000 0.000000 7.125000 0.000000 0.000000 41.522663 75.522411 -30.932585
9.281757 12.226838 29.339974 -181.747324 0.775485 -126.639846 0.000000 0.000000 0.000000 2.753624 -24.883984 -91.170892 21.293679 19.959857 93.784908 3.777918 -13.563879 -35.267683 4.156742 -12.366084 -37.039581 0.000000 0.000000 0.000000 -2.077164 28.015400 -88.262549 -19.969926 -19.999972 89.912131 -7.669552 -1.032600 -53.321962 -5.475541 13.900142 -42.838810 -4.198650 -0.883460 -3.302646 -1.290161 -1.185678 -2.035177 0.991491 -0.616945 -0.186265 1.960443 -5.208469 -2.741993 5.169731 -3.109446 -26.858463 1.368152 -0.682733 -7.788663 0.000000 0.000000 0.000000 10.976281 -6.943788 -30.795972 13.260539 -21.666318 2.549683 31.560072 -6.219545 13.768532 0.000000 0.000000 0.000000 -7.125000 0.000000 0.000000 2.806020 13.950129 2.048546 0.000000 0.000000 0.000000 -0.495706 -6.967124 17.309103 -13.364762 -21.816056 -2.589482 -17.405550 21.633431 47.641938 0.000000 0.000000 0.000000 7.125000 0.000000 0.000000 44.112012 75.350043 -32.865377
